<?xml version="1.0" encoding="utf-8"?>
<!DOCTYPE svg PUBLIC "-//W3C//DTD SVG 1.1//EN" "http://www.w3.org/Graphics/SVG/1.1/DTD/svg11.dtd">
<svg version="1.1" id="Ebene_1" xmlns="http://www.w3.org/2000/svg" xmlns:xlink="http://www.w3.org/1999/xlink" x="0px" y="0px"
	 width="200px" height="200px" viewBox="0 0 200 200" enable-background="new 0 0 200 200" xml:space="preserve">
<path d="M196.041,172.651c0,12.592-10.208,22.801-22.799,22.801H28.841c-12.592,0-22.8-10.209-22.8-22.801v-144.4
	c0-12.592,10.208-22.8,22.8-22.8h144.401c12.591,0,22.799,10.208,22.799,22.8V172.651z"/>
<path fill="#FFFFFF" fill-opacity="0.1" d="M170,56.649c-3.968,5.804-8.765,10.749-14.39,14.836c0.058,0.829,0.088,2.073,0.088,3.73
	c0,7.699-1.126,15.382-3.375,23.051c-2.251,7.672-5.672,15.027-10.262,22.076c-4.591,7.05-10.053,13.28-16.389,18.7
	c-6.338,5.419-13.978,9.741-22.919,12.968c-8.943,3.229-18.508,4.843-28.693,4.843c-16.05,0-30.737-4.293-44.061-12.882
	c2.072,0.237,4.381,0.355,6.929,0.355c13.325,0,25.198-4.085,35.621-12.259c-6.218-0.118-11.785-2.027-16.7-5.73
	c-4.917-3.698-8.292-8.422-10.127-14.169c1.955,0.299,3.76,0.444,5.419,0.444c2.546,0,5.063-0.325,7.55-0.976
	c-6.634-1.36-12.125-4.665-16.479-9.905c-4.353-5.243-6.529-11.327-6.529-18.255v-0.356c4.026,2.251,8.351,3.465,12.97,3.643
	c-3.909-2.604-7.019-6.01-9.328-10.215c-2.311-4.204-3.465-8.764-3.465-13.682c0-5.209,1.302-10.036,3.91-14.479
	c7.165,8.824,15.885,15.887,26.16,21.186c10.274,5.301,21.277,8.248,33.001,8.839c-0.474-2.25-0.71-4.44-0.71-6.574
	c0-7.934,2.798-14.701,8.394-20.298c5.598-5.597,12.362-8.395,20.299-8.395c8.29,0,15.278,3.021,20.964,9.062
	c6.453-1.243,12.526-3.554,18.211-6.927c-2.191,6.809-6.396,12.079-12.613,15.81C158.983,60.5,164.493,59.019,170,56.649z"/>
<g id="Ebene_1_1_">
	<g>
		<path fill="#FFFFFF" d="M56.814,132.133c-0.246-0.246-0.625-0.892-0.744-1.538c-0.758-9.378-2.133-29.062-2.53-37.297
			c0.005-0.272,0.257-0.272,0.521-0.272c1.156,0.106,2.433,0.609,2.558,1.249c1.551,7.844,4.265,24.658,5.84,31.215
			c7.962,1.157,24.282,3.352,31.364,3.896c0.511,0,1.26,1.271,1.381,2.162c-0.012,0.531-0.14,0.644-0.53,0.793
			c-6.955,0.105-28.337,0.417-36.45,0.406c-0.517,0.013-0.903-0.111-1.277-0.482L56.814,132.133z"/>
		<path fill="#FFFFFF" d="M119.237,134.934c-0.258,0.256-0.649,0.39-0.897-0.122c-15.762-31.952-37.743-76.439-53.269-106.336
			c-0.118-0.387-0.237-0.776,0.021-1.033c1.965-1.964,7.122-2.553,8.373,0.005c14.612,30.039,29.057,62.788,47.758,103.979
			c0.371,0.891-1.071,2.592-1.862,3.363L119.237,134.934z"/>
		<path fill="#FFFFFF" d="M145.638,40.009c0.136,0.123,0.378,0.635,0.364,1.41c0.908,9.259,2.141,29.074,2.539,37.302
			c-0.006,0.268-0.261,0.272-0.513,0.272c-0.917-0.117-2.315-0.743-2.43-1.387c-1.292-8.087-4.531-24.651-6.104-31.195
			c-7.836-1.046-24.156-3.241-30.979-4.043c-0.644-0.112-1.263-1.276-1.242-2.296c-0.133-0.386,0.011-0.515,0.401-0.646
			c6.816,0.021,28.203-0.3,36.308-0.292c0.642,0.113,1.163,0.368,1.545,0.75L145.638,40.009z"/>
	</g>
</g>
<text transform="matrix(1 0 0 1 38.313 183.5)" fill="#FFFFFF" font-family="'Ubuntu'" font-size="19" letter-spacing="1">@CodeArcs</text>
</svg>
