<?xml version="1.0" encoding="utf-8"?>
<!DOCTYPE svg PUBLIC "-//W3C//DTD SVG 1.1//EN" "http://www.w3.org/Graphics/SVG/1.1/DTD/svg11.dtd">
<svg version="1.1" id="Ebene_1" xmlns="http://www.w3.org/2000/svg" xmlns:xlink="http://www.w3.org/1999/xlink" x="0px" y="0px"
	 width="200px" height="200px" viewBox="0 0 200 200" enable-background="new 0 0 200 200" xml:space="preserve">
<g>
	<path d="M27.254,185.019c-0.417-0.416-1.037-1.467-1.232-2.523c-1.25-15.446-3.517-47.824-4.161-61.373
		c0.007-0.424,0.43-0.432,0.854-0.436c1.904,0.184,4.01,0.999,4.206,2.054c2.561,12.886,7.016,40.571,9.608,51.336
		c13.105,1.92,39.955,5.541,51.594,6.425c0.848-0.013,2.087,2.087,2.275,3.567c-0.015,0.847-0.229,1.062-0.865,1.284
		c-11.442,0.173-46.618,0.702-59.965,0.689c-0.847,0.014-1.48-0.188-2.104-0.812L27.254,185.019z"/>
	<path d="M129.929,189.619c-0.429,0.43-1.067,0.65-1.479-0.19c-25.903-52.57-62.086-125.75-87.614-174.938
		c-0.201-0.632-0.404-1.265,0.026-1.696c3.226-3.226,11.714-4.2,13.77,0.006c24.041,49.421,47.806,103.294,78.562,171.047
		c0.613,1.474-1.759,4.264-3.051,5.556L129.929,189.619z"/>
	<path d="M173.377,33.469c0.208,0.208,0.619,1.049,0.602,2.32c1.466,15.231,3.518,47.825,4.161,61.372
		c-0.006,0.425-0.432,0.431-0.855,0.438c-1.479-0.19-3.795-1.215-3.991-2.271c-2.129-13.315-7.44-40.562-10.029-51.327
		c-12.897-1.712-39.748-5.333-50.954-6.649c-1.059-0.195-2.09-2.086-2.064-3.781c-0.202-0.633,0.013-0.848,0.654-1.069
		c11.226,0.043,46.399-0.486,59.745-0.475c1.059,0.196,1.898,0.606,2.524,1.232L173.377,33.469z"/>
</g>
</svg>
