<?xml version="1.0" encoding="utf-8"?>
<!-- Generator: Adobe Illustrator 15.0.0, SVG Export Plug-In . SVG Version: 6.00 Build 0)  -->
<!DOCTYPE svg PUBLIC "-//W3C//DTD SVG 1.1//EN" "http://www.w3.org/Graphics/SVG/1.1/DTD/svg11.dtd">
<svg version="1.1" id="Ebene_1" xmlns="http://www.w3.org/2000/svg" xmlns:xlink="http://www.w3.org/1999/xlink" x="0px" y="0px"
	 width="200px" height="200px" viewBox="0 0 200 200" enable-background="new 0 0 200 200" xml:space="preserve">
<g id="Ebene_2">
	<circle cx="100.103" cy="100.104" r="95"/>
</g>
<g id="Ebene_1_1_">
	<g>
		<path fill="#FFFFFF" d="M55.877,151.784c-0.246-0.246-0.625-0.892-0.744-1.538c-0.758-9.378-2.133-29.063-2.53-37.297
			c0.005-0.272,0.257-0.272,0.521-0.272c1.156,0.106,2.433,0.609,2.558,1.249c1.551,7.844,4.265,24.658,5.84,31.215
			c7.962,1.157,24.282,3.351,31.364,3.896c0.511,0,1.26,1.271,1.381,2.162c-0.012,0.531-0.14,0.644-0.53,0.793
			c-6.955,0.106-28.337,0.417-36.45,0.406c-0.517,0.013-0.903-0.111-1.277-0.482L55.877,151.784z"/>
		<path fill="#FFFFFF" d="M118.3,154.585c-0.258,0.256-0.65,0.39-0.897-0.122c-15.762-31.952-37.744-76.44-53.269-106.336
			c-0.118-0.387-0.237-0.777,0.021-1.033c1.965-1.964,7.122-2.553,8.373,0.004c14.612,30.039,29.057,62.789,47.758,103.98
			c0.371,0.891-1.071,2.592-1.862,3.364L118.3,154.585z"/>
		<path fill="#FFFFFF" d="M144.7,59.66c0.136,0.123,0.378,0.635,0.365,1.41c0.907,9.259,2.14,29.074,2.538,37.302
			c-0.006,0.267-0.26,0.272-0.512,0.272c-0.917-0.117-2.316-0.743-2.43-1.386c-1.292-8.087-4.531-24.652-6.105-31.196
			c-7.835-1.046-24.156-3.241-30.979-4.043c-0.643-0.112-1.263-1.276-1.242-2.296c-0.133-0.385,0.01-0.514,0.402-0.646
			c6.815,0.021,28.203-0.3,36.307-0.292c0.641,0.113,1.163,0.368,1.545,0.75L144.7,59.66z"/>
	</g>
</g>
</svg>
